<svg xmlns="http://www.w3.org/2000/svg" xmlns:xlink="http://www.w3.org/1999/xlink" version="1.1" id="Layer_1" x="0px" y="0px" viewBox="0 0 70 70" enable-background="new 0 0 70 70" xml:space="preserve">
<polygon opacity="1.00" fill="#FFFFFF" points="34,1.7 26,10 26,22 32,22 32,16 34.5,16 36,16 36,22 42,22 42,10 "/>
<polygon opacity="0.95" fill="#FFFFFF" points="22,13 22,26 26,26 19.2,32.2 11,24.1 11,13 "/>
<polygon opacity="0.90" fill="#FFFFFF" points="10.5,27.7 19.7,36.9 22.2,34.4 22.1,43.6 10.9,43.6 2.8,35.5 "/>
<polygon opacity="0.85" fill="#FFFFFF" points="12,47 25,47 25,43 31.5,49.8 23.6,58 12,58 "/>
<polygon opacity="0.80" fill="#FFFFFF" points="27.7,59.4 36.9,50.2 34.4,47.7 43.4,47.9 43.3,59.3 35.4,67.2 "/>
<polygon opacity="0.75" fill="#FFFFFF" points="47,57 47,44 43.8,44 50.2,37.7 58,45.7 58,57 "/>
<polygon opacity="0.70" fill="#FFFFFF" points="59.3,42.3 50.1,33.1 47.5,35.7 47.9,26.8 59.5,26.9 67.1,34.5 "/>
<rect opacity="0.65" fill="#FFFFFF" x="46" y="12" width="11" height="11"/>
</svg>
